PathFileType	4	(X/Y/Z)	Trial07_KneeR_markers_cropped.trc
DataRate	CameraRate	NumFrames	NumMarkers	Units	OrigDataRate	OrigDataStartFrame	OrigNumFrames
200	200	6	27	m	200	37	101
Frame#	Time	R_ASIS			L_ASIS			Sacral			L_Thigh_Superior			L_Thigh_Posterior			L_Thigh_Inferior			L_Thigh_Lateral			L_Shank_Posterior			L_Shank_Superior			L_Shank_Lateral			L_Shank_Inferior			L_Midfoot_Superior			L_Heel			L_Midfoot_Lateral			L_Toe			R_Thigh_Posterior			R_Thigh_Superior			R_Thigh_Lateral			R_Thigh_Inferior			R_Shank_Posterior			R_Shank_Superior			R_Shank_Lateral			R_Shank_Inferior			R_Midfoot_Superior			R_Heel			R_Midfoot_Lateral			R_Toe
		X1	Y1	Z1	X2	Y2	Z2	X3	Y3	Z3	X4	Y4	Z4	X5	Y5	Z5	X6	Y6	Z6	X7	Y7	Z7	X8	Y8	Z8	X9	Y9	Z9	X10	Y10	Z10	X11	Y11	Z11	X12	Y12	Z12	X13	Y13	Z13	X14	Y14	Z14	X15	Y15	Z15	X16	Y16	Z16	X17	Y17	Z17	X18	Y18	Z18	X19	Y19	Z19	X20	Y20	Z20	X21	Y21	Z21	X22	Y22	Z22	X23	Y23	Z23	X24	Y24	Z24	X25	Y25	Z25	X26	Y26	Z26	X27	Y27	Z27

38	   0.185	    1.06224965070065	    0.99535303816757	    0.55739953617487	    1.14312240514073	    0.97077648670679	    0.31660885422229	    0.91478989415886	    1.03880030388204	    0.38436796093959	    1.12312808895621	    0.72676105304867	    0.26090562864689	    1.04818017205773	    0.71989945301985	    0.25566517329276	    1.12574448947242	    0.63433899680095	    0.28320750668058	    1.04629823373817	    0.63224322774984	    0.27522660096950	    0.99454070546147	    0.36612072762034	    0.30489877355437	    1.06620331738995	    0.34560445123161	    0.31885602022627	    0.98756256574051	    0.29513137198236	    0.30936058256873	    1.05224471344870	    0.28912415989919	    0.32143726906761	    1.08921907211234	    0.08787022193434	    0.42969250283273	    0.91674070120521	    0.03756334815196	    0.44805184831132	    1.01807890828829	    0.02422928162974	    0.38141005940449	    1.21451267886965	    0.03494095698215	    0.43203345471053	    0.99687677348512	    0.79102270499729	    0.62445629794762	    1.07098528573642	    0.80568535574234	    0.62620485451293	    1.02090208137928	    0.69537088190561	    0.63872263833848	    1.08967584635383	    0.71353390840511	    0.64300754785350	    0.93705563263203	    0.51278374977628	    0.63033742693993	    0.96309235586772	    0.44076866252499	    0.63541005776291	    0.87606483500935	    0.47978403831123	    0.61244284383284	    0.91087533888764	    0.41633060129619	    0.61814901406372	    0.77183520671498	    0.28831532200205	    0.54310315292183	    0.65971649432698	    0.40604559704390	    0.46859608768841	    0.66249542544058	    0.31811302938567	    0.55587712390053	    0.79185759456859	    0.16436483696322	    0.57300600327980
39	   0.190	    1.06165744008858	    0.99528776743626	    0.55756445362320	    1.14288096082770	    0.97077706139934	    0.31691499241093	    0.91448535098022	    1.03877078329066	    0.38429770740289	    1.12314964062714	    0.72679363962687	    0.26115020167780	    1.04825063401891	    0.71991267166065	    0.25570356596617	    1.12578472564423	    0.63437512156548	    0.28344894044477	    1.04636195179795	    0.63223123666085	    0.27528209245896	    0.99456512361755	    0.36611602633584	    0.30496600911985	    1.06622495392611	    0.34562144586837	    0.31896610134173	    0.98760301066067	    0.29512964512293	    0.30943561295709	    1.05227403016831	    0.28913599734885	    0.32155455699382	    1.08922119108792	    0.08786553359555	    0.42970497423989	    0.91673742671974	    0.03755894864573	    0.44806188666002	    1.01807824964615	    0.02423777695909	    0.38141663963307	    1.21451529534275	    0.03494967469242	    0.43204348021861	    0.99613435184658	    0.79091698094981	    0.62435785115182	    1.07022219640560	    0.80555297302232	    0.62622005433572	    1.02009235689526	    0.69526878544802	    0.63865782155116	    1.08885570710451	    0.71340110610095	    0.64306725841438	    0.93632094980851	    0.51751656318461	    0.63003517624881	    0.95998971475096	    0.44464757792507	    0.63448577670177	    0.87434924839352	    0.48668790065638	    0.61172603203850	    0.90707581623880	    0.42208401693229	    0.61683156054324	    0.76231903150519	    0.29854408000691	    0.53834763303432	    0.65599735546900	    0.42186921759994	    0.46677788736413	    0.65545836404787	    0.33312909986732	    0.55345574496139	    0.77984100531614	    0.17488058056744	    0.56887961674132
40	   0.195	    1.06109712090401	    0.99523668732912	    0.55770853192753	    1.14263403919266	    0.97077781151639	    0.31720493704831	    0.91415238444631	    1.03876418234898	    0.38423172553747	    1.12309634731984	    0.72683147626459	    0.26138534033362	    1.04822944530873	    0.71991714570864	    0.25574864779381	    1.12573708812716	    0.63442375827249	    0.28369700600667	    1.04633780389093	    0.63224757813201	    0.27535511933027	    0.99448449208298	    0.36612924693385	    0.30503375893002	    1.06615238294182	    0.34565619208954	    0.31903978103908	    0.98753738819408	    0.29516575584315	    0.30948259423588	    1.05221016152770	    0.28916097645042	    0.32164205830644	    1.08921962122241	    0.08787029468409	    0.42971081153520	    0.91672794259677	    0.03755079231294	    0.44806672003790	    1.01807545794978	    0.02424372957516	    0.38142239887443	    1.21451703685918	    0.03495803341581	    0.43205039820076	    0.99546242058335	    0.79081416564816	    0.62427247354270	    1.06956739455842	    0.80547182713948	    0.62626790462383	    1.01937320665489	    0.69520055187388	    0.63862920073516	    1.08812557073452	    0.71330376469703	    0.64316611331572	    0.93589721602102	    0.52206622552734	    0.62993002504964	    0.95725938829124	    0.44845033703647	    0.63362985912723	    0.87304798724325	    0.49338908283044	    0.61118003811097	    0.90368308566135	    0.42776018339240	    0.61563575663039	    0.75425932610010	    0.30951582469875	    0.53465953145087	    0.65293464867306	    0.43748287076877	    0.46526971140842	    0.64932959524984	    0.34787020074872	    0.55107312965904	    0.76869553580070	    0.18542956759666	    0.56455875740173
41	   0.200	    1.06057987870759	    0.99519093979362	    0.55785606322355	    1.14236711657938	    0.97078538216605	    0.31746025784884	    0.91383647302049	    1.03878181470296	    0.38418839337987	    1.12297631234161	    0.72688596996690	    0.26155545053323	    1.04811023595679	    0.71992262657962	    0.25580719206933	    1.12562215454919	    0.63448046701774	    0.28388334903924	    1.04624296694486	    0.63228355436271	    0.27542191788063	    0.99438621760805	    0.36614394436284	    0.30505643315879	    1.06605926555735	    0.34569131983103	    0.31907665275989	    0.98745078191757	    0.29520187680889	    0.30946065391066	    1.05213067288382	    0.28918347642866	    0.32168290173598	    1.08921598671985	    0.08788267577179	    0.42971152807270	    0.91671608423139	    0.03754213377536	    0.44805673432892	    1.01807204207198	    0.02424203807704	    0.38142084625065	    1.21451467938717	    0.03496554919472	    0.43205562447763	    0.99486115716564	    0.79074069045683	    0.62425217016032	    1.06898422491771	    0.80542962366255	    0.62633721196732	    1.01875447138095	    0.69516491955365	    0.63871430516106	    1.08751262446183	    0.71325735499097	    0.64330133487484	    0.93572377721658	    0.52650092967033	    0.62989678637353	    0.95482500748227	    0.45224290696770	    0.63287081128757	    0.87210275440920	    0.49992186766500	    0.61068274498112	    0.90066708748141	    0.43338026592909	    0.61454581308647	    0.74780886372126	    0.32086665663072	    0.53185685984766	    0.65054289015527	    0.45273015602541	    0.46391305893610	    0.64429104328278	    0.36220328020119	    0.54839826726862	    0.75830525658641	    0.19603537924621	    0.56037546877759
42	   0.205	    1.06010569016555	    0.99513392011361	    0.55799349954736	    1.14206552433063	    0.97079227245364	    0.31766135953927	    0.91353825298251	    1.03882197760032	    0.38420471239037	    1.12280509204773	    0.72694408877742	    0.26162614579234	    1.04792596919362	    0.71993767080392	    0.25585279450628	    1.12546918582926	    0.63453076313392	    0.28396753851729	    1.04609885512199	    0.63230973129931	    0.27545721747183	    0.99431363094698	    0.36614816453606	    0.30506314134339	    1.06598757373695	    0.34571159050958	    0.31909083764489	    0.98738035533493	    0.29515207279939	    0.30949837117459	    1.05207238570438	    0.28919748027081	    0.32169339829598	    1.08921241539952	    0.08789312638956	    0.42971041976423	    0.91670968933265	    0.03753562647071	    0.44804713488774	    1.01807245299554	    0.02423666388975	    0.38141857608802	    1.21450922437532	    0.03497379775251	    0.43206320377345	    0.99433273460167	    0.79070994217105	    0.62431168591219	    1.06846287671559	    0.80541811461634	    0.62640798892479	    1.01824224571731	    0.69515078308667	    0.63891097459468	    1.08701031113335	    0.71326309351492	    0.64346448912838	    0.93573718555586	    0.53086354242830	    0.62984189715726	    0.95263779196704	    0.45605057220407	    0.63220946111936	    0.87144674244416	    0.50629955215820	    0.61019566844308	    0.89799979374774	    0.43895017151505	    0.61358009169920	    0.74232043053074	    0.33205809543945	    0.52939748094133	    0.64895927410044	    0.46736367035709	    0.46252672430464	    0.63987468165637	    0.37621695365251	    0.54591065476895	    0.74863799664677	    0.20664962391753	    0.55659768860225
43	   0.210	    1.05966876963300	    0.99505979695318	    0.55810128320867	    1.14170784890847	    0.97077399980169	    0.31780334792411	    0.91323777534077	    1.03888910296228	    0.38425974462371	    1.12257732711179	    0.72698933867749	    0.26160503807697	    1.04773227926820	    0.71995805998391	    0.25581038875403	    1.12528107328426	    0.63457255096054	    0.28394418091478	    1.04591273252692	    0.63230602736469	    0.27544758773995	    0.99427163047929	    0.36613692579450	    0.30506911451230	    1.06594683144680	    0.34571149359615	    0.31909987545558	    0.98734277368995	    0.29508970602392	    0.30954707506479	    1.05204066789054	    0.28919789052930	    0.32169946206617	    1.08921061835187	    0.08789703119813	    0.42971348435103	    0.91670554722964	    0.03753094192002	    0.44804449218185	    1.01807231868810	    0.02422733353381	    0.38141589077662	    1.21450221245415	    0.03498313311794	    0.43207506908760	    0.99388987219534	    0.79071486100278	    0.62442871462470	    1.06801757194180	    0.80542527800462	    0.62647191072109	    1.01783022510200	    0.69516075782912	    0.63917585834031	    1.08658464646480	    0.71330412102040	    0.64366769578614	    0.93587926097053	    0.53511312700170	    0.62976859979073	    0.95067663793920	    0.45982982504699	    0.63162409800826	    0.87103997972265	    0.51245513734225	    0.60973421389458	    0.89566748223376	    0.44439319353625	    0.61272945686093	    0.73746960300499	    0.34283296416650	    0.52715338456839	    0.64800305503395	    0.48122745158421	    0.46117358146224	    0.63605673329992	    0.38975338922848	    0.54375649439263	    0.73980214453759	    0.21705952071975	    0.55324186949938
